<svg xmlns="http://www.w3.org/2000/svg" viewBox="0 0 490 135" width="490" height="135">
  <path fill="#d70b2a" d="M272.3 60.3c-.8.2-1.6.1-2.3-.3-2.4-1.2-2-4.9.6-5.6 9.6-2.8 16.4-7.5 20.1-14h-20.3c-3.9 0-3.9-6 0-6H293c.5-2 .7-3.9.8-5.4-5.7.3-11.5.5-16.8.5-4 0-3.9-5.9 0-6 10.4 0 29.7-1.2 37.9-2 2.5-.4 4.4 3 2.6 5-.5.6-1.2 1-2 1-3.8.4-10.9 1-15.3 1.2 0 1.4-.2 3.4-.6 5.6h22.3c4 .1 4 6 0 6h-20.4c3.9 7 11 11.8 20.3 13.8 2.7.6 3.3 4.3 1 5.7-.7.4-1.5.6-2.3.4-10.9-2.2-19.7-8.3-24.5-16.9-4.4 8-12.4 13.7-23.7 17zm-3.6-39.9c4.1 2.9 6.8-4.6 8.6-6.7h4.2c1 1.4 3.2 7.4 5.1 7.6 2.5.9 4.8-2.1 3.6-4.4l-1.7-3.3c1-.1 6.8.3 7.6-.3-.9 1.5-2.6 2.8-2.3 4.7.2 1.6 1.9 2.8 3.5 2.5 3-.9 4-4.6 5.8-6.9h5.2l3.2 5.8c1.9 3.4 7.2.6 5.3-2.9l-1.6-2.9h7.1c3.9 0 3.9-5.9 0-5.9h-15.6c.9-1.6 2-2.8 1.4-4.6-.5-1.6-2.2-2.5-3.7-2-.8.2-1.4.8-1.8 1.5-1.6 2.9-3.2 5.6-4.8 8.1.1-1.7-1.2-3.1-2.9-3.1h-13.8c.9-1.9 2.1-3 1.5-5-.9-2.6-4.5-2.7-5.7-.2-2.3 4.6-6.1 10.6-8.4 13.5-1.3 1.5-1.1 3.5.2 4.5zm78.1 19c.7.1 1.5 0 2.1-.4 2.6-1.4 6.5-4.1 8.4-5.5 1.3-.8 1.7-2.8.8-4.1-2.7-3.7-7.5 2.5-12.1 4.6-2.2 1.3-1.7 4.9.8 5.4zm-1-17.2c2.2 0 3.7-2.5 2.7-4.4l-2-3.8c-1.1-2.3-4.8-2-5.5.5-.2.8-.2 1.6.2 2.3 1 1.6 2.1 5.7 4.6 5.4zm-1.9 17.1-.1-8c0-1.8 1.5-3.3 3.3-3.3h15.2c3.9 0 3.8-5.9 0-5.8h-3.6l2.8-5.5c1.3-2.3-1.1-5.3-3.6-4.3-.8.3-1.4.8-1.8 1.5l-4.1 8.2h-5c-5.1 0-9.3 4.1-9.3 9.1v8c0 4.7-.7 11.6-2.8 15.6-.4.7-.5 1.5-.2 2.2.4 1.5 2.2 2.4 3.7 2 5-2.7 5.4-15.9 5.5-19.7zm2.9 9.6c2.9.8 11.3-6.3 14.5-8.5 2.9-2.4-.6-7.1-3.7-4.6-3.7 2.9-7.5 5.5-11.5 7.7-2.2 1.3-1.7 4.8.7 5.4zm17.9-4.5c-1.1-1.3-2.9-1.4-4.2-.3-4.3 3.6-10 7.2-15.5 9.7-2.9 1.2-1.8 5.8 1.2 5.7 6.9-2.3 13.2-7 18.2-10.9 1.2-1.1 1.4-2.9.3-4.2zm1.2 16.2c-1.9.1-3.5-2-2.9-3.8.2-.8.7-1.4 1.4-1.8 3.1-1.8 5.4-3.8 7.7-5.7-3.3-1.8-5.6-5.3-5.6-9.3V23.6c0-4.9 3.6-9.2 8.4-10.2l1.8-4.1h-8.8c-.9 0-1.7-.4-2.3-1 .6 1.9-.8 3.9-2.8 3.9h-23.2c-3.9 0-3.9-5.9 0-5.9h8.6c-.1-2.5-.3-5.8 3.1-6 3.4.2 3.2 3.5 3.1 6h8.4c.9 0 1.7.4 2.2 1-.7-1.9.8-4 2.9-4h24.2c1.7 0 3 1.4 3 3 0 1.7-1.4 3-3 3h-8.8l-1.7 3.9c6.2-.5 11.7 4.2 11.7 10.4V40c0 4.2-2.5 7.8-6 9.5 0 0 7.1 5.6 7.2 5.6 3.2 2.5-.8 7.1-3.8 4.7l-7.1-5.6c-1.1-.9-1.5-2.4-.9-3.7h-6.5c.6 1.1.3 2.6-.6 3.5-2.4 2-6.1 5.8-9.7 6.6zm21.3-36.8c.1-2.6-1.8-4.7-4.4-4.7-3.9.1-10.2-1.2-10.2 4.7h14.6zm0 9.9v-3.9h-14.6v3.9h14.6zm0 5.9h-14.6c-.1 6.1 6.1 4.8 10.2 4.9 2.6 0 4.6-2.3 4.4-4.9z"/>
  <path fill="#3b2f28" d="M7.7 36.7c-8.4 13.7 2.8 24.8 15.4 13.6 2.7 1.6 6-1.7 4.5-4.4 4.9-5.6 8.6-12.4 11-17.4 17.1 3.3 11 20.3-3.5 22.5-1.8.4-2.9 2.1-2.5 3.8.3 1.7 2.1 2.9 3.8 2.5 24.8-4.5 25.1-31.2 4.6-35.1 0-3.6-5.5-4.1-6.3-.7-2.5 0-4.9.3-7.5 1 .2-1.8.3-3.4.5-4.9 5.5-1.1 12.7-1.8 14.5-5.5.6-1.7-.4-3.6-2.1-4.1-.8-.3-1.7-.2-2.5.2-2.4 1.2-5.7 2.2-9 2.7.2-1.5.7-4.4.8-5.4.6-4.3-5.8-5.4-6.6-1.1-.3 1.9-.7 5.2-1 7.2-3.3.3-8.7.2-11-.5C6.6 10 5 16.3 9.1 17.4c2.7.8 8.1 1 11.9.8-.3 2.2-.5 4.6-.7 7-5.2 2.8-9.9 7-12.6 11.5zm18.7.3c-.1-2.5 0-5 .2-7.5 1.7-.6 3.4-1.1 5.1-1.3-1.8 3.4-3.5 6.3-5.3 8.8zm-5.9 6.9C5.6 57.4 10.7 38.1 20 33c-.1 3.3-.1 7.1.5 10.9zm78.7-26.5c3.1-2.1 11.9 2.5 16.1 4.3 3.8 2 .7 7.8-3.1 5.9-4.1-2.1-8.1-3.6-11.6-4.3-2.8-.5-3.6-4.3-1.4-5.9zM67.6 42.2c2.8-7.1 7.3-15 10.9-22.4-2.4-.4-6.3.5-8.3-1.6-1.2-1.4-.9-3.6.4-4.7.7-.6 1.6-.9 2.5-.8 2.6.3 5.6.5 8.5.5 1.1-2.4 2.5-5.5 3.7-8.8.6-1.7 2.6-2.6 4.3-2 4.2 1.7 1 6.5 0 9.2 1.3-.5 2.5-1.1 3.7-1.9 2.5-1.6 5.7.9 4.9 3.6-1.6 3.8-8.4 5.2-12.1 5.9-3.9 8.4-9.2 17.5-12.3 25.3-.4 1.3-1.8 2.2-3.1 2.2-2.2.1-3.9-2.3-3.1-4.5zm18.8-.6c-3 1.6-4.7 4.2-4.7 7.2 1.1 11.4 20.8 11.2 22.7.3 2.7 1.4 5.3 3.1 7.6 5 1.4 1.2 3.4 1 4.6-.4 4.2-5-8.5-10-12.4-11.9-.3-4.1-.7-8.6-.6-12.3 1.3-4-4.6-6-6.1-2.2-1 4.5-.2 6.8 0 12.6-4-.4-8.1.2-11.1 1.7zm10.7 8c-1.5 2.3-8.5 1.5-8.8-.8.6-2.6 7.1-3.1 9.8-2.1 0 1.2-.4 2.2-1 2.9zm65.2-27.3c2.6-.3 6.9-.7 10.4-.7 2.9.2 10.2-.9 9.7 4.1-1.1 4.7-6.2 2.1-9.7 2.5-4.4 0-6.9.4-10 .6-2.7.1-4.3-3.3-2.6-5.3.5-.7 1.3-1.1 2.2-1.2zm19.1 33c-6 1-14.6 1.8-22-1.6-3.7-1.8-5.7-4.7-5.7-8.1-.1-2.8 1.8-8.6 5.8-6.6 3.2 1.8 1.4 4.3.9 6.6 1.9 5 15 4 19.7 3.1 4.3-.8 5.5 5.7 1.3 6.6zm-42-1.2c-1.7 4.1-8 1.4-6.3-2.7 4.6-10.9 8.9-21.3 12.2-30.6-2.9.1-5.9.1-8.9-.5-4.2-.7-3.2-7.2 1.1-6.6 2.9.5 6.1.6 9.8.4.7-2.6 1.5-5.5 1.3-8.2-.2-4.5 6.6-4.8 6.9-.4.2 2.5-.3 5.1-.9 7.6 3.3-.3 5.7-2.6 8.7-1.7 2.7 1.1 2.6 5.1-.1 6.1-3.3 1.3-6.8 2.2-10.6 2.7-.3 1-.7 2-1.1 3.1-3.1 9.3-7.3 19.3-12.1 30.8zm82-10.5c5.3-7.6 8.4-19.4 11.7-28.7 13.5 1.4 17 16.9 8.5 25.8-2.7 2.7-6.6 4.7-10.9 5.5-.9.2-1.7.7-2.2 1.5-1.5 2.2.2 5.4 2.9 5.3 18.9-2.2 29.8-25.4 15.3-39.2-4.7-4.3-12.2-6.4-19.4-5.9-18.2.7-35.1 22.8-23 38.7 5.1 5.3 12.8 3.7 17.1-3zm-9.9-.6c-3.9-.2-4.5-5.5-4.5-8.8.5-10.3 9.9-18 18.9-19.4-2.8 7.3-7.3 26.4-14.4 28.2zm229.2-.2c-2.5 5.7-5.7 11.8-10.6 13.1-2.5.1-4.3-2.9-3-5-.4-.7-.8-1.2-1.5-1.7-2.2-1.6-1.2-5.2 1.4-5.6 1.9-.3 3.3 1.3 4.4 2.6 3.6-5.3 5.5-12.5 5.5-18.6.4-5.6-4.5-5.4-8.4-4.4-2.9 7.4-7.8 18.2-14.9 28.7-1.5 2.4-5.7 1.6-6.1-1.3-.2-.9 0-1.8.5-2.5 4.6-6.8 8.9-14.7 12.6-23.5-2.3.4-5.6 1-7.8 1.2-4.3.5-5.2-5.9-1-6.6 3.9-.6 7.8-1.2 11.6-1.9 1.4-3.9 2.3-7 3.1-9.8 1.2-4.2 7.7-2.6 6.6 1.7-.4 1.8-1.2 4.3-2.1 7h1.3c14.6-.3 12.4 16.7 8.4 26.6zm13-27.2c2.3 3.2 7.2-.2 4.9-3.4-1.7-2-4-8.1-7.5-5.6-1.3.9-1.7 2.9-.8 4.2 0-.1 3.4 4.8 3.4 4.8zm8.2-11.3c-2.2-3.2-7.2.4-4.9 3.5l3.6 5c.9 1.3 2.9 1.6 4.2.6 1.3-.9 1.7-2.9.7-4.2l-3.6-4.9zm-2.7 23.8c-1.9-3.9-4.3-8-6.5-11-2.6-3.6-8 0-5.6 3.7 4.6 7.4 7 10.2 8.1 18 .3 2.9 4.2 4.1 6 1.9 2.2-3.2-.8-9.4-2-12.6zM489 54.4c-2.3-2.8-6.5-7-9.8-9.8-2-1.8-5.3 0-4.9 2.6.1.8.5 1.5 1.1 2 3.5 2.9 6.5 5.9 8.9 8.9 2.6 3.3 7.3-.6 4.7-3.7zM59.4 125.7c-4.5 7.2-13.5 8-17.2 8-7.6 0-16.4-3.3-16.4-12.7v-16.9l-3 1.2c-3.7 1.4-5.9-4-2.3-5.5l5.2-2.2V84c.1-4 6.1-4.1 6.2 0v11.1l5.9-2.4V77.6c.1-4 6.1-4.2 6.2 0v12.7c6-3.5 13.4-.8 13.6 6.7v12.7c.1 5.1-4.4 11.1-9.4 9.2-2.2-1.4-1.5-5 1.1-5.5 2-.5 2.1-3.2 2.1-3.7V97c-.4-4.4-5.2-.8-7.4-.2v19.9c-.1 4-6 4-6.1 0V99.2c-1.8.8-4.3 1.8-6 2.4V121c0 6 7.2 6.6 10.3 6.6 12.9-.1 11.1-8.2 16.1-6.1 1.4.7 1.9 2.9 1.1 4.2zm-41.5-9.3-3.5 1.4V99.6c2.5-.1 7.1.8 7.2-3-.1-3.8-4.5-2.9-7.1-3V80.7c0-1.7-1.4-3.2-3.1-3.2-1.7 0-3.1 1.4-3.1 3.2v12.9c-2.6.2-7.9-1.1-7.9 3 .1 4.1 5.4 2.8 8 3v20.8l-6.1 2.5c-2.6.9-2.6 4.8 0 5.7.7.3 1.6.3 2.3 0l15.7-6.6c3.5-1.5 1.2-7.1-2.4-5.6zm110.8 8.1c-2.8-.8-3.8 1.6-4.6 3.7-2.1-2.6-3.7-7.1-4.6-9.9 2.7-4.7 6-11.5 7.5-16.5.8-2.6-2.1-4.9-4.4-3.6-.7.4-1.3 1-1.5 1.8-.9 3-2.2 6.2-3.8 9.5-1-6-1.1-12.1-1.1-17.4h10.2c4.1-.1 4-6.1 0-6.2h-1.8c4.4-2 .4-5.9-1.3-8.3-2.3-3.2-7.3.2-4.9 3.5.9 1 2.7 4.5 4.1 4.8h-6.4v-8.6c0-1.7-1.5-3.1-3.2-3.1-1.7 0-3.3 1.5-3.3 3.1v8.6H92.4c-1.6 0-3 1.4-3 3.1 0 1.7 1.4 3.1 3 3.1H110c0 8.1.4 16.7 2.8 25.4-2.7 4.3-5.9 8.4-9.4 12.1-.6.6-.9 1.4-.8 2.2 0 2.7 3.6 4 5.3 2 2.9-3.1 5.4-6.1 7.5-8.9 8.1 21.4 20.1 1.7 13.3-.4zm-38.4-20.7c.7-12.7 20.3-11.7 18.3 2.9-.9 13.2-20.3 11.4-18.3-2.9zm6 0c-.1 2.5-.4 5.9 3.2 5.8 1.9 0 3.1-1.1 3.1-3 .1-2.4.4-5.9-3.1-5.8-2 .1-3.2 1.2-3.2 3zm12.6 14.3c-.6-1.5-2.5-2.2-4-1.5l-15.9 7c-1.5.7-2.2 2.5-1.6 4.1.7 1.6 2.5 2.2 4 1.5l15.9-7.1c1.6-.7 2.3-2.4 1.6-4zm-19.1.3c1-2.4-1.7-5-4.1-3.8l-2.7 1.2V95.7c2.6 0 6.3.6 6.5-3.1-.1-3.5-4-3-6.5-3V77.7c0-1.7-1.4-3.1-3.1-3.1-1.8 0-3.2 1.4-3.2 3.1v11.9c-2.6.1-7.6-.9-7.7 3 .1 4.1 5.1 3 7.7 3.1v22.9l-5.7 2.5c-2.9 1.2-1.9 6.1 1.3 5.9.7.4 15.1-6.8 15.9-7 .7-.2 1.3-.8 1.6-1.6zm98.7-21.8c-3.8 2.3-9.3 4.9-13.8 7.2-.7-6.1-7.1-9.1-12.6-6.9.9-1.5 1.7-3.1 2.4-4.5 4.6-.5 16.1-1.5 13.6-7.4-2.5-4.1-6.9.6-10.4.6 1.1-2.7 4.4-7.2.3-9.1-1.7-.7-3.7.1-4.4 1.8-1.1 2.6-2 4.9-3.4 7.8-2.9 0-6.1-.3-10.3-.8-.9-.1-1.7.2-2.4.8-2.3 1.8-1.1 5.6 1.8 5.9 2.8.3 5.4.4 7.8.5-3.4 6.2-6.8 11.3-10.4 15.4-.6.6-.9 1.5-.8 2.4.1 1.7 1.7 3.2 3.4 3 .8-.1 1.6-.4 2.2-1.1 1.9-2.1 3.8-3.9 5.7-5.3 4.6-3.5 11.6-7.2 11.2.3-6.5 4.2-12.5 6.7-13.1 14.8 0 5.4 4.3 8.7 12.2 9.2 6.1.4 11 0 18.1-.9 4.2-.5 3.5-7.1-.8-6.6-8.1 1.3-35.3 3.7-16.3-8.8v3.6c.1 4.3 6.5 4.3 6.6 0l-.1-7.3c3.8-2.5 17.1-7.3 18.2-10.8.9-2.9-2.2-5.3-4.7-3.8zm25.6-14.9c0 1.7 1.5 3.2 3.2 3.2h37.6c1.7 0 3.1-1.5 3.1-3.2 0-1.7-1.5-3.3-3.1-3.3h-37.6c-1.7.1-3.2 1.6-3.2 3.3zm48.6 39c-3.7-.7-3.6 2.9-5.3 5-1.4 2.6-8.5 3.4-10.7 1-.8-.7-1.2-1.6-1.2-2.7v-19.9h15.8c4.1 0 4.1-6.3 0-6.4h-50.9c-1.7 0-3.1 1.5-3.1 3.2 0 1.7 1.4 3.1 3.1 3.1h14.8c-.2 6.5-1.6 11.6-4.3 15.5-2.5 3.8-6.2 6.7-11.4 8.8-1.7.6-2.5 2.6-1.8 4.2.6 1.6 2.6 2.5 4.2 1.8 12.9-5.1 19.5-15.3 19.8-30.4h7.4V124c0 2.8 1.2 5.5 3.3 7.4 5.1 4.7 16.1 4.1 20.2-1.9 2.7-3.5 4.2-7.2.1-8.8zm70.7 2.2c-3.2-.9-3.7 2.5-4.8 4.5-3.4-3.2-3.4-12.8-2.2-18.2 1.4-5.3-2.1-10.6-7.8-10.5l-35.9.1c-4 0-4.1 6.2 0 6.2h35.7c1.3 0 1.9.5 1.9 1.9-1.9 9-2 25.3 8.5 27.1 4.1.3 10.2-9.1 4.6-11.1zm-41.9-33.6c-3.9 0-4 5.9 0 6h32.3c3.9 0 3.8-5.9 0-6h-32.3zm19.8 17.6c-1.4-1.1-3.3-.8-4.4.6-1.8 2.4-4.2 4.8-7.5 7.8l-5.9-5.4c-1.2-1.1-3.2-1.1-4.3.2-1.1 1.2-1.1 3.2.2 4.4l5.4 4.8c-4.4 3.4-8.6 6-12.7 7.8-1.6.7-2.3 2.6-1.6 4.1 2.2 5.7 15.2-5.1 19-7.7l6.9 6.2c1.2 1.1 3.1 1.1 4.3-.2 1.1-1.2 1.1-3.2-.2-4.3l-6.3-5.7c2.3-2.7 11.4-9 7.1-12.6zm-27.6-13.3c1.8-2.3 3.7-4.9 5.6-7.8h38.9c4-.1 4.1-6 0-6.1h-35.3c3-3.8-2.4-7.9-4.9-3.9-2.5 4.8-5.7 9.6-9.2 14-.5.6-.8 1.4-.7 2.2.3 2.6 4 3.7 5.6 1.6zm109.9-8.2c-7.5-1.3-15.4-.3-21.3 1.6-3.6.8-3.1 6.7.7 6.5 5.8-1.5 12.8-2.7 19.6-1.5 4.4.6 5.4-6 1-6.6zm-32.1 28.9c-1.1-.5-2.3-.3-3.2.5-.7-9.4 2.5-20.5 3.7-30.8.6-4.3-6.1-5.3-6.8-.9-1.3 9.5-3.8 19.9-3.8 28.8.1 5.2 1.4 15.4 6.5 16 2.3.1 4-2.4 3.2-4.5.2-.9.7-2.9 1.7-5.1.8-1.6.1-3.4-1.3-4zm36.8 4.7c-.7-.5-1.6-.7-2.5-.6-3.3.4-6.8.8-10.3.8-5.4 0-8-1-9-1.7-4.2-2.5.7-6 0-9.4-.7-2.7-4.8-3.3-6.1-.7-6.8 11.9 3 19 15.1 18.4 3.8 0 9.2-.6 11.3-.9 2.9-.3 3.9-4.3 1.5-5.9zm23.8 15.4c-12.7-.3-12.7-18.9 0-19.2 12.6.3 12.7 18.8 0 19.2zm0-14.6c-6.4 0-6.4 9.8 0 9.8s6.4-9.7 0-9.8z"/>
</svg>