<svg xmlns="http://www.w3.org/2000/svg" viewBox="0 0 360 80" width="360" height="80">
  <path fill="#d70b2a" d="M78.5 44c-.2.4-.6.7-1.1.8-1.3.3-2.6.7-3.9 1-4.2 1.1-8.5 2.3-13.7 3.3-17.9 3-29.3 4.8-43.7 2.8-22.5-4.2-12.3-21.3 1.4-31.7C32.7 8.6 56.8-3 74.2 4.2c2.8 1.1 4.6 3.9 3.7 7.3-.2.8-1 1.4-1.9 1.3-.9-.1-1.6-.9-1.4-1.8.5-2.1-.2-3.3-2-4C54.2-1.2 15.5 18.8 7.2 36.9c-7.3 18.3 34.4 12.5 52 9.2 5.1-.9 9.3-2.1 13.4-3.2 1.3-.4 2.6-.7 3.9-1 1.3-.4 2.6.9 2 2.1zm47.1-2.4c-.1.4-.3.8-.7 1.1-7.3 4.8-12.9 7.7-16.7 8.6-3.8.9-6.7 0-7.6-3.5-.6-2.6.1-5.3.2-7.8-.9.5-2.1 1.4-3.7 2.8-2.2 1.9-5 4.6-8.6 8.3-1.1 1.2-3.4.1-2.9-1.5 1-3 3.1-8.6 3.1-8.7 5.6-14.2 13.1-30.1 17.8-28.4 4.6 1.6-7.3 21.4-14.7 29.8-.2.5-.4 1.1-.6 1.6 4.2-3.9 11.1-10.9 12.8-5 .4 2.2-.7 5.9-.2 8.3.1.5.3.9.6 1.1 3.3 1.5 11.6-3.6 18.4-8 1.2-.9 3 0 2.8 1.3zm-23.5-21.1c-1.2 1.9-2.7 4.6-4.5 8.4 1.9-3.1 3.4-6 4.5-8.4zm59.3 21.1c0 .4-.2.9-.6 1.1-6.6 4.7-13.2 9.7-19 8.8-2.4-.5-3.7-2.7-3.5-5.3-3.3 3-5.8 5.2-9.4 5.5-3.6-.2-4.6-3-3.7-6.4 1.2-4.1 6.2-10.1 14.9-8.5.6.1 1.2.6 1.3 1.2.3-.3.5-.7.8-1 .8-1.1 2.8-.7 3 .6.1.4 0 .9-.3 1.2-1.9 2.5-3.3 5.7-3.3 7.9 0 1.7.7 1.9 1 1.9.8.2 2 0 3.6-.6 3.1-1.2 7.3-3.7 12.4-7.6 1.1-.9 2.9-.2 2.8 1.2zm-22-1.9c-3-.7-6.9.6-8.3 2.2-2.1 1.9-3.5 5.1-2.5 6.6.1.1.5.2 1.6-.3 1.8-.7 4.8-2.8 9.6-8.4-.1 0-.3-.1-.4-.1zm50.4.8c-.5-.6-1.5-.8-2.3-.3-7.5 4.6-13.2 7.3-17 8.1-5.1 1.2-4.7-2.2-3.7-6.1 7.8-8.7 22.9-31.6 13.8-29.7-.4.2-.8.7-1.1.9-1.4 1.6-4.7 6.1-7.8 11.2-3.8 6.1-17.6 29.4-.4 26.7 4.2-.9 10.3-3.7 18.2-8.6.7-.4.9-1.5.3-2.2zm28.7 0c-.5-.6-1.5-.8-2.3-.3-7.5 4.6-13.2 7.3-17 8.1-5.1 1.2-4.7-2.2-3.7-6.1 7.8-8.7 22.9-31.6 13.8-29.7-.4.2-.8.7-1.1.9-1.4 1.6-4.7 6.1-7.8 11.2-3.8 6.1-17.6 29.4-.4 26.7 4.2-.9 10.3-3.7 18.2-8.6.7-.4.9-1.5.3-2.2zm33.5 1.2c-.1.4-.3.8-.7 1.1-3.9 2.3-9.7 5.6-15.1 7.5-5.4 2-11.9 2.3-15.2-2.3-3.2-4.4 1.5-11.1 6.3-11.8 3.7-.6 5.7.9 6 2.6.4 3.6-4 5.9-9.5 7.5 5.4 6.4 20.3-3.2 25.6-6.2 1.1-.7 2.8.2 2.6 1.6zm-22-2.3c-2.4-1-5.5 1.2-6.4 3.8 2.1-.7 3.9-1.4 5.1-2.3.9-.8 1.2-1.2 1.3-1.5zm59.2 1c-.6-.6-1.6-.6-2.3-.1-6.4 4.7-11.1 7.3-14.2 8-2.1.4-3 .3-3.6-1.4-.7-2.3-.3-5.3-.8-7.6-.2-1.1-.7-1.9-1.3-2.4-3-1.8-6 1.3-9.3 4.2l1.4-2.7c.4-.8 0-1.8-.9-2.1-.8-.3-1.8 0-2.1.8l-6.3 12.4c-.8 1.7 1.7 3 2.8 1.7 6.3-6.8 9.6-10.1 12.4-11.5.3.8.3 2.6.3 3.8 0 6.7 3.4 9.9 10.2 7.3 3.4-1.2 8-4 13.6-8 .7-.6.8-1.7.1-2.4zm34.3 1.7c-.2.4-.6.7-1 .9-7.3 2.3-13.6 5-18.7 8.1-2.9 6.6-7.1 15.6-10.4 21.1-1.7 2.8-3.1 4.5-4.2 5.3-7.1 4.3-8.8-16.3 11.9-28.5l1.1-2.6c-2.3 2.2-4.3 3.7-6.1 4.5-5.5 2.4-8.1-1.1-6.9-5.6 1.1-4.1 6.1-10.1 14.8-8.6.7.1 1.3.7 1.4 1.4.8-1 1.7-2.5 3.2-1.7.7.4 1 1.2.7 1.9l-3.3 7.9c4.5-2.3 9.7-4.4 15.5-6.2 1.2-.4 2.6.8 2 2.1zm-20.2-2.3c-3-.7-6.9.6-8.3 2.2-2.1 1.9-3.5 5.1-2.4 6.6.2.1.6.2 1.6-.3 1.8-.7 4.9-2.8 9.6-8.5h-.5zM288 74.2c2.7-3.2 5.9-9.4 10.6-19.6-9.7 7.7-11.2 15.7-10.6 19.6zm69-32.5c-.1.4-.3.8-.7 1.1-3.9 2.3-9.7 5.6-15.1 7.5-5.4 2-11.9 2.3-15.2-2.3-3.2-4.4 1.5-11.1 6.3-11.8 3.7-.6 5.7.9 6 2.6.4 3.6-4 5.9-9.5 7.5 5.4 6.4 20.3-3.2 25.6-6.2 1.2-.7 2.9.2 2.6 1.6zm-22-2.3c-2.4-1-5.5 1.2-6.4 3.8 2.1-.7 3.9-1.4 5.1-2.3 1-.8 1.2-1.2 1.3-1.5z"/>
</svg>