<svg xmlns="http://www.w3.org/2000/svg" viewBox="0 0 595 83" width="595" height="83">
  <path fill="#d70b2a" d="M337.1 70.6c-1.5-2.3-3.5-4.4-6-8-1-1.5-3.5-3.7-4-5.2-.7-2.2-.5-6.1.6-7.8s6.9-5.3 12.7-8c0-3.4-.1-6.9-.1-10.1-1.5.3-3.4.6-4.6.9-4 .9-8.4 2.9-10.1 2.7-1.8-.2-5.5-4.3-5.5-6.2 0-.5.4-1 1-1.5 1.2-.9 4.2-1.9 5.5-2.2 2.4-.5 8-1.4 13.7-1.9-.1-2.2-.1-3.8-.1-4.5-.1-3.5-.2-8.2 1.5-8.6 1.5-.5 4.4 3.9 4.5 6.6v6c2.7-.2 5.2-.3 6.7-.1 1.7.2 4.1 2.9 3.6 4.8-.4 1.5-2.3 1.9-4.5 2.1-1.5.1-3.6.4-6 .7-.1 2.8-.1 5.8-.2 8.8 2.3-.8 4.3-1.4 5.6-1.4 1.8 0 4.5 3 4.4 4.6-.2 1.6-3 2.5-4.4 3-1.8.6-3.5 1.2-5.7 2.2-.2 7.9-.3 14.8-.3 16.7 0 5.4-.5 9.4-2.1 10-2.1 1-5.2-2-6.2-3.6zm2.4-9.1c.9-.1 1.1-2.8 1.1-5.3v-5.9c-4.2 2.3-6.7 4.2-6.6 5.2 0 1.6 4.6 6.1 5.5 6zm29.7-21.7c1.4-12.6 1-25.8.5-30.9-.3-3.8.8-6.1 2.1-6.1 1.6 0 3.9 3.4 4.1 6.4.8 14.5-.2 35.8-4.3 54.1-2.4 10.5-5.6 18-7.1 18-2.6 0-4.8-7.4-4.7-9.9.1-2.8 3.1-7 5.5-13.1 1.5-3.8 2.5-8.4 3.3-13.3-3.2 2-7.5 5.3-9.3 6.8-2.1 1.7-3.6 2.7-4.7 2.4-1.9-.6-1.5-6.6-.2-8.5 1.3-1.7 9.7-5.8 12.9-6.2.6-.1 1.3 0 1.9.3zm-5.8-17.7c1.9 1.9 4.1 5.4 4.6 8.9.3 1.6-.4 3.6-1.3 3.8-1.3.3-3-1.7-5.6-4.5-.8-.9-3.9-3-4.6-5.1-.6-1.9-.5-5.6.9-6.2 1.5-.5 3.7.8 6 3.1zm22.1 10.2c-1 12.5-1.1 28.8-.6 29.6.4.6 1.9 1.6 3.6 1.6 2 0 7-2 8.8-1.8 2.4.3 5.5 5.9 5.5 7.8 0 1.6-3.4 3.4-7.7 3.8-5.2.5-10.2-2.2-12-3.6-2.5-2-4.1-6.3-4.2-8.5-.2-3.5.6-38.7 1.2-45 .4-4.3 1.1-7 2.5-7.3 1.7-.4 4.4 4.5 4.4 7.1 0 .9-.3 4.6-.9 10.8 2.2-1.7 4.2-3.5 5.8-5.4 1.5-1.6 3.1-4.4 4.2-4.3 1.9.2 5.1 4.6 4.1 6.9-1 2.2-8.4 6.9-11.5 7.8-.8.4-2.1.6-3.2.5zm7.3 7.4c2.4.7 6.4 3 7.8 6 .7 1.5 1.7 6.6 0 7.7-1.7 1.1-5.2-1.5-6.5-2.6-1.5-1.5-3.2-4.7-4.8-6.5-1.3-1.4-2.5-3-1.7-3.9.7-1 3.5-1.3 5.2-.7zm32.7 15.5c2.4-.5 7.5-1.4 13-2.1l.1-3.5c-1.5.5-2.7.8-3.5.6-1.5-.3-3.7-3.5-3.4-4.6.4-1.1 2.7-1.8 3.9-2.1 1-.2 1.8-.4 3-.6l.1-4.2c-.5.2-1.8.7-2.5.8-1.3.2-4.5-1.9-4.5-3.2-.1-1.5 1.6-2.2 3.3-2.8.7-.3 2.4-.7 3.9-1.1 0-1.2 0-2.5.2-3.5-2.6.5-4.1 1.1-5 1-1.7-.1-4.3-2.5-4.3-4 0-1.1 1.3-1.8 2.5-2.3 2.5-1 8.6-2.3 13.5-2.7.1-.9.3-1.8.5-2.4.7-2.5 4.7-10.6 7.1-15.3.6-1.2 1.8-2.8 3.3-2.8 1.9 0 3.4 3.9 2.9 7.6-.5 3.9-4.7 9.6-7.3 12.6-.1.1-.1.2-.2.2 3.5.9 6.3 4.5 6.4 7.2.1 2.5-.6 11.5-1.5 15.9-.5 2.5-1.2 4.5-1.9 4.5-.8 0-1.8-1.1-2.5-2.3-.3.5-.9 1.3-2.1 1.4-1.9.2-4.2.5-5.9.8v4.2c5.9-.7 11.5-1.1 13.6-.7 2.5.5 4.5 3.3 4.3 4.7-.2 1.1-1.6 2-2.8 2.2-1.7.3-6.2.5-9 .7-2.2.2-4.2.5-6.1.7 0 8.3-.1 15.5-.2 16.9-.1 2.5-.5 5.6-2 5.6s-3.6-2.7-3.9-5.1c-.3-3 0-10.1.2-16.6-2.1.4-4 .7-5.8 1.1-4.6 1-7.5 2.7-9.3 2.5-2-.2-5.5-4-5.5-5.9-.2-1.4 3.9-2.7 7.4-3.4zm3.6-47.1c.8 1.2 1.5 4.6 2 4.6.9.2 3.6-8.2 5.4-9.1 1.5-.8 4.8.6 6.4 2.9.8 1.2 1.6 3.6 2 5.9.4 2.2.5 5.2-.9 6-1.3.8-4.1-1.5-5.1-3-.8-1.2-1.2-3-1.6-4.7-1.4 2.4-3.3 9.2-4.7 9.7-1.9.7-5-1.3-5.9-2.5-.8-1.2-2.3-3.5-3.1-6.8-.5-2.3-.6-4.3 0-4.7.8-.8 4.6.3 5.5 1.7zm.3 19.6c.5 3.5.8 16.7.8 20.8 0 1.3-.4 3-1.3 3.2-.7.2-3.5-1.8-4.2-4.9-.5-2.3-1.2-16.3-1.2-19.7 0-1.9.8-3.9 1.9-4.3 1.1-.4 3.7 2.6 4 4.9zm22.7 7.1c.3-3.8.5-7.4.2-7.6-.4-.4-5 .2-9.2.9.6.8 1.4 1.8 1.3 3.5.7-.1 1.5-.2 2.1-.2 2.2-.2 4.7 1.6 5.6 3.4zm-7.6 2.2v2.5c1.4-1.1 2.5-2.2 2.4-2.5-.3-.3-1.3-.2-2.4 0zm7.2 6.5c0-1.4.1-3.6.3-6.1-1.5 1.9-4.9 4.5-4.8 4.7.5.2 1.9-.3 3 0 .5.1 1.1.8 1.5 1.4zm39.5-18.1c-.1 1.5-1.8 2.2-4 2.5-2.7.5-6 1-9.9 1.7.7 3.6 1.6 7.3 2.9 10.9.5 1.6 1.3 3.3 2.1 4.8 2.5-3.5 4.8-7.5 6.1-9.6 1.1-1.9 2.7-5.5 4.1-5.4 2.2.2 3.6 4.5 2.5 8.1-.5 1.7-5.8 9.5-8.7 13.7 3.8 5.5 7.8 9.6 8.7 11 .8 1.4 1.7 6.1 1.7 9.3 0 1.5-.2 2.7-.7 2.9-1.6.6-5.2-2.1-8.9-7.1-1.5-2-3.9-5.6-6.5-10.6-2.6 3.8-6.5 9.1-11.9 14.8-3.2 3.4-8.4 8.6-10.1 8.4-2.2-.2-1.8-8.2-.7-10.2 1.3-2.3 5.2-4.4 6.8-5.8 6.3-5.6 9-9.1 12.6-14.2-2.1-4.9-4.1-10.6-5.5-16.9-.2-.8-.4-1.6-.5-2.6-2.1.8-4.7 1.8-6.7 1.6-2-.2-6.3-4.8-6.3-6.7 0-1.4 2.3-2.5 5.2-3.2 1.6-.4 4.1-.8 6.4-1.2-.8-6.6-1.3-12.6-1.3-14.9 0-2.5.2-5.5 1.5-5.7 1.5-.3 4.3 2.3 4.6 5.6.3 2.4.4 7.6 1.1 14.1 3.5-.5 7-.8 9.4-.7 3.7.1 6.1 3.9 6 5.4zm0-16.1c1.9 1.8 2.7 3.8 2.7 5.9 0 1.1-1.1 2.9-2.5 2.8-1.7-.1-5.6-2.5-7.8-5.9-2.2-3.5-2.5-8.1-.7-8.8 1.7-.7 6.9 4.6 8.3 6z"/>
  <path fill="#333" d="M54.3 65.3c-1.1.3-1.8 1-2.2 2.3-.3.8-.8 1.1-1.7 1-10.8-3.6-17.9-9.3-21.8-19.8-3.5 12.1-14.1 17.1-26.6 20-1.5 0-2.2-2.4-.5-2.8 11.3-4.1 17.9-8.1 21.4-18.3-5.6 0-13.5-.3-19.2.8-.5 0-1 .1-1.5-.7l-1.1-2c-.5-.8-.1-1.9 1.2-1.9 2.2.2 4.7.3 7.3.4h14.1c.3-1.8.6-4 .7-6.5-6.4.6-12.3 1-17.7 1-.7 0-1.3-.5-1.4-1.2 0-.2-.1-.4-.1-.5 0-.2.1-1 1.1-1.3 10.7-1 22.9-2.4 33.2-5.5-.6-2.5-2.3-5.3-4.1-7.3h-2.2c-2.2 3.5-4.6 6.4-7 8.4-.3.3-.5.4-.8.5-.6.2-1.8-.5-1.8-1.2 0-.3 0-.6.3-1.1 1.4-2 2.8-4.3 3.9-6.7.3.2-9.1.1-9.2.1 1.6 1.4 2.9 3.6 2.9 5.5.1 2.5-2.3 4.5-4.6 2.8-.3-.3-.6-.7-.7-1.2-.2-2.3-1.7-5.1-3.1-7.1H11c-2.6 4.4-5.4 8-8.4 10.7-.5.5-1.2.5-1.8.2-.7-.5-.8-1.3-.4-2 2.2-3.2 5.4-8.8 6.9-13.6.6-2.3 1.2-4.3 1.5-6 .1-.5.3-.8.6-.9.2-.1.6-.3 1.2-.1 5.2 2 5.6 2.7 5.6 3.5.1.9-1.1 1.4-1.9 1.6-.5 1.2-1 2.2-1.5 3.1h8.4l.8-1.2c.6-.8 1.2-2 2.3-2 .7-.3 4 2.7 4.5 3.6.9-2.4 1.7-5.5 1.9-7.4.1-.6.4-.9.6-1 .2-.2.6-.3 1.2-.1 5.4 1.9 5.8 2.6 5.8 3.4.1.9-1 1.4-1.9 1.6-.4 1-.9 2-1.5 3.2h11.4l.9-1.3c.5-.7 1.3-2.3 2.3-2.1.5 0 1.2.3 3 1.7 1.4 1.1 2.2 2 2.5 2.7.2.4.1.9 0 1.3-.3.6-.9 1.2-2.2 1.2H41.6c1.7 1.4 3 3.5 2.8 5.5.3.1.5.3.8.5 3 3.4 3.3 4.3 3.3 4.8 0 1-1.1 1.3-1.9 1.2l-1.4-.2c-4.4.8-9.4 1.6-14.8 2.3-.2 2.6-.4 5-.8 7.1h15.9c.4-.7 1.2-1.8 1.7-2.4.5-.7 1.1-1.5 1.8-1.5.5 0 1.2.3 3.1 1.9 1.5 1.2 2.3 2.2 2.7 2.9.2.4.2.9 0 1.3-.3.6-.9 1.2-2.3 1.2H31.6c3.8 7.6 11.4 12.7 22.6 15 1.4.2 1.7 2 .1 2.6zm65.8-45.4h-10.4c-.9 2-1.8 3.7-2.6 5.2h5.9c.8-.9 1.4-2.6 2.7-2.6.8-.3 4.4 3 4.7 4 .8 1.1-.8 2.3-1.9 2.5v11.9c.1 5 .2 9.6.5 13.8.1 1.8-3.5 3.3-5 2.9 3.8 1.9 8.8 6.2 6.3 10.4-.9 1.1-2.2 1.2-3.5.5-.3-.2-.6-.5-.8-.9-.6-1.5-1.6-3.1-3-4.8-1.5-1.7-3-3.3-4.6-4.6-.4-.3-.6-.7-.6-1 0-1 1-1.6 1.9-1.3 1.5.5 2.8 1 4 1.6-.8-.4-.7-1.3-.7-2h-10.2l2.1 1.6c1.9.9 2.6 1.5 2.6 2.3 0 .2-.1 1.1-1.5 1.1h-.5c-3.9 3.6-10.7 7-16 8.5-1.4.2-2.3-1.7-1.1-2.6 3.4-1.8 7.9-5.1 10.5-8.5-.7.3-1.4.5-2.2.5-.8.1-2-1.1-1.9-2.1.3-3.9.5-8.2.5-12.8v-9.6c0 .9-1.4 1.8-2.4 1.7h-3.4c1.3.7 2.3 1.3 2.3 2.2 0 .5-.2 1-1.4 1.2-.1 0-.8.1-.8.1-3.8 3-8.9 6.1-13.6 7.7-.6.1-1.2-.3-1.6-.8-.2 2.9-.5 5.7-1 8.4.1-.2.3-.4.5-.6 1-.6 2.4-1.5 4.2-2.8 1.5-1.1 3-2.5 4.6-4 1.5-1.5 2.7-3 3.5-4.3.4-.5.7-.6 1-.7.2 0 .6 0 1 .3l2.2 1.7c1.4.7 2.4 1.3 2.4 2.2 0 .5-.2 1-1.4 1.2 0 0-.7 0-.8.1-4.2 3.7-9.8 6.9-15.1 8.9-.7.3-1.5 0-1.7-.5-.2-.3-.4-.6-.4-.9-.8 4.4-2.4 8.5-4.7 12.1-.4.5-.7.6-1.1.6-.9 0-1.9-1.1-1.5-2.1 3.7-9.6 3.1-19.5 3.3-30.4 0-1.4-.1-2.7-.2-3.8 0-1.2.8-1.7 1.8-1.3l3.6 1.8h.3c-.3-1.4-.2-2.7-.8-4.2-.4-1.5-1.2-2.7-1.7-4-1.1.1-2.2.3-3.3.4-.3 0-.8-.1-1.2-.7l-1-2.1c-.5-.8-.1-1.9 1.1-1.9 2.8.3 6.6.5 9.7.4 0-2.3-.2-4.4-.4-6.3-.1-.6.3-1 .5-1.2.2-.2.6-.3 1.2-.1 1.9.6 3.3 1.1 4 1.5 1.5.6 2.4 2.1.6 3.1l-.6.4v2.6h4.2c.4-.6 1.1-1.6 1.5-2.1.4-.6 1.2-1.4 1.8-1.3.4 0 1 .2 2.2 1.3-.2-.8.2-1.6 1.3-1.6 2.3.2 4.7.3 7.4.4h11.5c.4-.6 1-1.6 1.5-2.2.5-.7 1-1.4 1.9-1.4.7-.4 5.4 3.7 5.6 4.6.8 1.2.1 2.3-1.8 2.4zM79.9 31.8H82c.9-2.6 1.8-5.9 2-8.5-1.4 0-6.3 0-7.6.1 1.1.8 2 1.6 2.6 2.5 1.3 1.9 1.9 3.9.9 5.9zm33.2 2v-5.2h-12.3v5.2h12.3zm-12.3 12.5v5.5h12.3v-5.5h-12.3zm0-9v5.4h12.3v-5.4h-12.3zm-16.3-1.9h-9.7c0 2.6 0 6-.1 8.5 3.6-2.2 7.2-5.2 9.8-8.5zm12.1-12.1 3.7 1.8h2.4c.1-.7.7-4.4.8-5.2-2.5-.1-5.1.1-7.6.7.6 1.4-.3 2.6-2.2 2.6h-3.3c1.3.8 1.1 2-.2 2.6l-.8.3c-1.2 2.1-2.4 4-3.6 5.7h1.4c.4-.5.9-1.4 1.3-1.9.5-.7 1.1-1.3 1.7-1.2.9-.2 5.1 3.5 5.1 4.7-.1-3.6-.3-6.4-.6-9 .1-1 .9-1.6 1.9-1.1zm-3.9 33c3.2 0 3-2.4-.3-3.6L89.9 51c-.8-.5-1.4-.5-2 .5-3.5 6.7-9.9 11.2-16.8 14.4-.7.3-1 1-.7 1.8.4.9 1.1 1.2 1.8 1 8.4-2.7 15.3-6.8 20.5-12.4zm83.8-17.5c-3.6 3.1-12.4 6-16.6 7.8-.1.8-.1 1.9-.1 3.4 0 3.9 0 4.7-.1 4.9-.4 3.8-5.7 4.1-5.8-.1 0-.9.3-4.1.4-5.4-2.8 1.8-5.5 3.8-5.5 7.1 0 2.5 2.8 3.7 8.3 3.7 2.9.1 6.8-1.4 9.3-1.3 2.9 0 3.3 1.8 3.3 2.5 0 1.7-1.4 2.8-4.1 3.4-5.1 1.2-15.2 1.1-18-1.7-3.9-3.3-3.7-9.3 0-12.8 1.7-1.7 4-3.3 7-4.9.5-7.5-2.9-8.5-6.7-4.5-1.6 1.7-3.1 3.6-4.6 5.6-.8 1.1-2.3 3.8-3.9 3.8-3.1.1-3.8-4.5-2.1-6.3 1.5-1.3 3.3-3 4.4-4.2 3.2-3.6 5.1-8.2 6.7-12.7-4.1.9-7.3.1-10.6-2.7-.5-.4-.6-.8-.6-1.1 0-1.1 1.2-1.4 2.3-.9 3.4 1.2 6.8.7 10.4-.5.5-2.1.5-4.1-1.3-5.5-.5-.4-.6-.9-.6-1.2.1-1.1.8-1.8 1.9-1.8.4-.1 4.4.7 4.7 1.6.4.5.6 1.7.4 2.6.4.2 1 .3 1.6.3 1.2-.1 1.4-.3 2.5-.3 2.1 0 2.3 1.5 2.3 1.9-.5 3.5-5.2 5-8.5 6.4-1.1 3.5-2.2 6.6-3.3 9.3 3.7-.9 7.4.8 8.7 4.2 2.2-4.1 5-7.7 9.3-9.9 3.6-1.9 7.1-2.1 9.6 0 3.1 2.3 2.3 7-.7 9.3zM161 42.2c5.6-2.9 7.8-3.6 11.2-7.1 1.7-2 2.5-3.7.2-3.7-5.4.6-9.4 5.9-11.4 10.8zm58.4 10.7c-.3-5.3-5-9.1-10.5-11.5-1.3-.5-2 .4-2.1 1.2 0 .2.1.6.4.9 2.8 3 5.7 7.6 6.4 11.5.2 1.2 1.6 1.8 2.8 1.8 1.9 0 3-1.9 3-3.9zm29.7-33.4c-1.6-1.7-2.2-2-2.8-2-.6-.1-1.3.6-1.8 1.2-.4.5-1 1.2-1.4 1.7h-16.3v-3.8c.7-.4 1.6-1 1.5-1.8 0-1-.9-1.8-6-3.2-.6-.2-1 0-1.2.1-.2.1-.6.6-.5 1.3.3 2.3.4 4.8.5 7.4h-14.4c-.3-1.2-.2-3.2-2-3.2-.7 0-1.4.5-1.4 1.6 0 1.8-.4 3.4-1.1 4.9-1 2.9-4.5 3.7-4.5 6.5 0 .4.1.7.3 1.3 1 2.2 4 1.9 5.6.4 2.2-1.6 3.3-4.9 3.3-7.9h35.5c-.7 1.9-1.5 3.9-2.5 6-.3.9.1 1.5.6 1.8.7.4 1.3.2 1.6-.1 2.1-1.7 5.1-4.8 6.7-7 4.3-.3 2.5-2.9.3-5.2zm1.7 17.2c-.3-.7-1.2-1.6-2.6-2.8-1.8-1.6-2.6-1.9-3.1-1.9-.8 0-1.4.8-1.9 1.5-.4.5-1.2 1.7-1.6 2.2h-6.3v-5.4c.7-.4 1.5-1 1.5-1.7 0-1-.9-1.7-5.9-3.3-.6-.2-1 0-1.2.1-.2.1-.5.6-.5 1.2.3 2.6.5 5.6.5 9.1-5.5-.1-26.3.3-31.3-.4-1.2 0-1.6 1.1-1.1 1.9l1.1 2.1c.5.8 1 .8 1.5.7 6.3-1.3 23.5-.6 29.9-.8v22.3c0 .4-.1.5-.1.5-1.4.2-1.9 0-7.5-.3l-2.2-.2c-.5-.1-.9.1-1 .2-.2.2-.5.5-.5 1.1 0 .7.4 1.2 1.3 1.4 2.7.4 4.6.9 5.6 1.6.5.4.9 1 1.1 1.9.2.7 1 1.2 1.4 1.1 4.6-.4 7.8-2.2 7.6-7V39.2h13.2c1.7 0 2.5-1.2 2.1-2.5zm52.7 13.4c.1 8.3-8.6 13.8-16.3 13.7-3.9 0-9.2-1.8-9.2-6.2 0-1.7.7-3 2-4 4.3-3.3 10.5-.6 12.3 4.3 3.1-1.8 5.7-4.9 5.6-8.5 0-2.9-.9-4.9-2.8-6.2-1.9-1.4-4.2-2-6.8-2-6.8.1-10.2 5.3-13.9 11.6-.8 1.4-1.6 2.4-3.1 2.5-2.2-.1-2.9-1.4-3-3.1.3-3.8 3.1-6 6-9.7 2-2.2 4.3-5.1 7.1-8.5 4.4-5.5 4.6-5.8 7.7-9.6.6-.7 1-1.3.2-1.9-.1 0-.4.1-.9.7-1.2 1.5-2.6 2.8-4.1 3.8-4.4 2.9-9.3 2.1-9.3-4.9 0-1.1.7-1.4 1.1-1.4.5 0 .8.3 1.7 1.3.3.4.7.5 1 .5 1.4 0 5.6-2.1 7.5-3.2 1.1-.7 2-1 2.9-1 4.2.1 10.5 5.1 5.5 8.9-4.4 3.5-8.4 7.5-12 11.8 4.6-1.9 9.3-1.8 13.5-.1 4.4 1.9 7.4 6 7.3 11.2zm-16.4 9.3c-.6-1.6-1.6-2.9-3.5-2.9-.3 0-.8 0-1 .3-1.3 1.6 3.4 2.8 4.5 2.6zm256.4-28.9c1.6 1.2 3.7 1.5 5.5 2.1-.2.3-.8 1.1-2.2 2.7-.9.9-1.1 1.2-1.3 1.4-.3.3-.4.7-.4 1 0 .5.4 1.1 1.1 1.1 1.7 0 3.9-2.5 5.5-3.3 1-.6 1.9-.9 3.1-.9 1.9 0 3.4-1 3.4-2.8-.1-4.4-4.7-4.7-8.5-4.1-3.2.3-2.5.4-5.4-.2-.1 0-1-.2-1.1-.2-.9 0-1.3.6-1.3 1.2.1.7.5 1.2 1.6 2zm-8.5-6.9c-1.9-.3-2.1.2-3.9-1.7.8-3.3-2-5.4-5.1-5.9-1.6-.3-3.7-.4-3.7 1.1 0 .3.1.8.7 1.2.4.3 2.1 1.2 2.3 2 .9 2.6.3 4.8-.2 8.4-2.8 1.3-6.2 1.4-9.3.8-.8-.1-1.3.5-1.3 1.1 0 .7.5 1.2.9 1.5.9.7 1.8 1.3 2.9 1.8 2 .9 3.8.8 5.7.5-1.7 7.5-4 16.2-7 23-1 2.1-1.1 2.9-1.1 3.4-.1 1.9 1.6 3.6 3.4 3.6 4.3.4 8.1-25.5 9.6-31.7 2.1-1 4.2-2.5 6.3-4.4.9-.8 1.3-1.6 1.3-2.5.1-1.2-.6-2-1.5-2.2zm28.2-1.8c-2.1-1.7-5.8-2.6-8.4-2.6-1.6-.1-2.9 1.3-1.5 2.5 1.3.7 3.2 1.3 4.1 2.3 1.2 1 1.7 3.2 3.2 4 4.8 2.1 6.3-3.6 2.6-6.2zm5.3-4.8c-1.8-1.4-4.9-2.2-7-2.2-1.1 0-3.1 0-3.1 1.4 0 .3.1.8.7 1.1 1.3.6 3.4 1.6 4.3 2.3.6.4 1.1 1.1 1.6 1.8.7 1 1.7 1.5 2.9 1.5 3.3 0 3.1-4.3.6-5.9zm-11.9 40.9c-1.5.1-7.7 1.1-8.3.9-6.9 0-7.7-2.8-7.7-4.9 0-.1.1-1.8.1-1.9-.1-1.8-1.9-1.6-2.7-.4-.6.9-.9 1.7-1.1 2.9-1.4 7.8 6.2 10.3 13.1 10.2 3.3-.1 10.2-.2 9.9-4.2-.1-.8-.4-2.6-3.3-2.6zm29.6 9.9c-6.7.1-11.1-7.5-7.6-13.2 3.2-5.8 12-5.8 15.2 0 3.4 5.6-1 13.4-7.6 13.2zm-5.6-8.8c.2 7.3 10.9 7.3 11 0-.2-7.3-10.7-7.3-11 0z"/>
</svg>